<?xml version="1.0" encoding="utf-8"?>
<!-- Generator: Adobe Illustrator 16.0.0, SVG Export Plug-In . SVG Version: 6.00 Build 0)  -->
<!DOCTYPE svg PUBLIC "-//W3C//DTD SVG 1.1//EN" "http://www.w3.org/Graphics/SVG/1.1/DTD/svg11.dtd">
<svg version="1.1" id="Layer_1" xmlns="http://www.w3.org/2000/svg" xmlns:xlink="http://www.w3.org/1999/xlink" x="0px" y="0px"
	 width="200px" height="200px" viewBox="0 0 200 200" enable-background="new 0 0 200 200" xml:space="preserve">
<path d="M143.963,132.235c0,6.627-5.373,12-12,12H65.631c-6.627,0-12-5.373-12-12V65.903c0-6.627,5.373-12,12-12h66.332
	c6.627,0,12,5.373,12,12V132.235z"/>
<circle fill="#FFFFFF" cx="75.384" cy="89.281" r="6.344"/>
<circle fill="#FFFFFF" cx="121.003" cy="89.281" r="6.345"/>
<g>
	<path fill="#FFFFFF" d="M70.114,69.245c0,0,0.334,0.043,0.889,0.171c0.556,0.125,1.332,0.336,2.235,0.638
		c1.806,0.604,4.084,1.633,6.237,2.878c2.154,1.245,4.182,2.705,5.604,3.973c0.71,0.634,1.28,1.202,1.665,1.624
		c0.387,0.417,0.59,0.687,0.59,0.687s-0.334-0.042-0.89-0.17c-0.557-0.125-1.333-0.335-2.237-0.635
		c-1.807-0.602-4.083-1.634-6.235-2.882c-2.152-1.248-4.179-2.71-5.602-3.976c-0.711-0.634-1.281-1.201-1.666-1.622
		C70.318,69.513,70.114,69.245,70.114,69.245z"/>
</g>
<g>
	<path fill="#FFFFFF" d="M126.335,69.245c0,0-0.204,0.268-0.591,0.685c-0.386,0.42-0.955,0.988-1.666,1.622
		c-1.423,1.266-3.45,2.729-5.602,3.976s-4.428,2.28-6.235,2.882c-0.903,0.3-1.68,0.511-2.236,0.635
		c-0.555,0.127-0.89,0.17-0.89,0.17s0.203-0.269,0.591-0.687c0.385-0.421,0.953-0.99,1.664-1.624
		c1.422-1.268,3.45-2.728,5.604-3.973s4.431-2.274,6.237-2.878c0.903-0.301,1.679-0.513,2.235-0.638
		C126.001,69.289,126.335,69.245,126.335,69.245z"/>
</g>
<path fill="#FFFFFF" d="M80.573,116.209c0,0,9.366,19.033,34.441,3.625"/>
<g>
	<path fill="#FFFFFF" d="M113.921,114.841c0,0,0.014,0.176,0.022,0.481c0.002,0.151,0.003,0.336,0.005,0.548
		c-0.004,0.211-0.015,0.454,0.045,0.693c0.043,0.244,0.088,0.502,0.12,0.771c0.005,0.269,0.158,0.546,0.226,0.836
		c0.094,0.286,0.15,0.593,0.312,0.867c0.135,0.283,0.272,0.57,0.41,0.858c0.182,0.262,0.363,0.523,0.541,0.781
		c0.16,0.275,0.396,0.479,0.6,0.701c0.22,0.203,0.379,0.47,0.619,0.614c0.224,0.165,0.431,0.334,0.623,0.493
		c0.187,0.173,0.389,0.276,0.567,0.376c0.179,0.104,0.335,0.196,0.463,0.272c0.261,0.165,0.409,0.26,0.409,0.26
		s-0.17-0.02-0.473-0.072c-0.152-0.029-0.338-0.066-0.55-0.108c-0.215-0.044-0.462-0.09-0.693-0.225
		c-0.243-0.114-0.508-0.241-0.783-0.39c-0.295-0.122-0.521-0.367-0.788-0.58c-0.249-0.232-0.561-0.429-0.749-0.74
		c-0.215-0.291-0.433-0.586-0.65-0.882c-0.148-0.336-0.296-0.671-0.442-1.002c-0.175-0.319-0.192-0.687-0.27-1.018
		c-0.054-0.34-0.151-0.65-0.113-0.979c0.007-0.32,0.029-0.619,0.052-0.889c0-0.277,0.082-0.499,0.148-0.699
		c0.068-0.201,0.127-0.376,0.176-0.521C113.853,115.004,113.921,114.841,113.921,114.841z"/>
</g>
</svg>
