<?xml version="1.0" encoding="utf-8"?>
<!-- Generator: Adobe Illustrator 16.0.0, SVG Export Plug-In . SVG Version: 6.00 Build 0)  -->
<!DOCTYPE svg PUBLIC "-//W3C//DTD SVG 1.1//EN" "http://www.w3.org/Graphics/SVG/1.1/DTD/svg11.dtd">
<svg version="1.1" id="Layer_1" xmlns="http://www.w3.org/2000/svg" xmlns:xlink="http://www.w3.org/1999/xlink" x="0px" y="0px"
	 width="200px" height="200px" viewBox="0 0 200 200" enable-background="new 0 0 200 200" xml:space="preserve">
<path d="M143.963,132.235c0,6.627-5.373,12-12,12H65.631c-6.627,0-12-5.373-12-12V65.903c0-6.627,5.373-12,12-12h66.332
	c6.627,0,12,5.373,12,12V132.235z"/>
<circle fill="#FFFFFF" cx="75.384" cy="87.281" r="6.344"/>
<circle fill="#FFFFFF" cx="121.003" cy="87.281" r="6.345"/>
<g>
	<path fill="#FFFFFF" d="M67.384,124.185c0,0,0.622-0.948,1.94-2.437c0.665-0.737,1.502-1.609,2.53-2.545
		c1.031-0.931,2.24-1.948,3.695-2.881c1.449-0.934,3.115-1.847,5.028-2.479c1.902-0.642,4.053-1.032,6.291-0.905
		c2.235,0.121,4.515,0.771,6.593,1.842c2.074,1.071,3.953,2.586,5.579,4.189l1.224,1.167l1.218,1.096
		c0.822,0.716,1.673,1.406,2.542,2.04c1.742,1.264,3.567,2.338,5.445,3.051c1.874,0.73,3.798,1.042,5.62,0.979
		c1.824-0.093,3.524-0.582,5.017-1.247c1.493-0.666,2.776-1.5,3.893-2.271c1.109-0.785,2.032-1.546,2.783-2.183
		c1.499-1.287,2.355-2.022,2.355-2.022s-0.186,0.214-0.533,0.613c-0.352,0.397-0.854,0.993-1.542,1.706
		c-0.685,0.717-1.529,1.58-2.576,2.502c-1.046,0.92-2.302,1.903-3.851,2.729c-0.767,0.423-1.613,0.789-2.519,1.1
		c-0.914,0.287-1.891,0.501-2.913,0.614c-2.047,0.205-4.255-0.078-6.348-0.823c-2.111-0.708-4.115-1.831-5.97-3.166
		c-0.933-0.664-1.829-1.376-2.709-2.125c-0.431-0.385-0.881-0.764-1.296-1.157l-1.211-1.181c-1.566-1.578-3.239-2.926-5.1-3.931
		c-1.84-1.016-3.837-1.647-5.825-1.815c-1.987-0.178-3.95,0.051-5.744,0.567c-1.794,0.513-3.442,1.232-4.888,2.045
		c-2.903,1.618-5.086,3.419-6.527,4.748C68.134,123.334,67.384,124.185,67.384,124.185z"/>
</g>
<g>
	<path fill="#FFFFFF" d="M80.334,67.245c0,0-0.204,0.268-0.591,0.685c-0.386,0.42-0.955,0.988-1.666,1.622
		c-1.423,1.266-3.45,2.729-5.602,3.976c-2.152,1.248-4.428,2.28-6.235,2.882c-0.903,0.3-1.68,0.511-2.236,0.635
		c-0.555,0.127-0.89,0.17-0.89,0.17s0.204-0.269,0.59-0.687c0.385-0.421,0.954-0.99,1.665-1.624c1.422-1.268,3.45-2.728,5.604-3.973
		s4.431-2.274,6.237-2.878c0.903-0.301,1.679-0.513,2.235-0.638C80,67.289,80.334,67.245,80.334,67.245z"/>
</g>
<g>
	<path fill="#FFFFFF" d="M117.114,67.245c0,0,0.334,0.043,0.889,0.171c0.556,0.125,1.332,0.336,2.235,0.638
		c1.807,0.604,4.084,1.633,6.237,2.878s4.182,2.705,5.604,3.973c0.71,0.634,1.28,1.202,1.665,1.624
		c0.387,0.417,0.59,0.687,0.59,0.687s-0.334-0.042-0.89-0.17c-0.557-0.125-1.333-0.335-2.236-0.635
		c-1.808-0.602-4.083-1.634-6.235-2.882c-2.151-1.248-4.179-2.71-5.602-3.976c-0.711-0.634-1.28-1.201-1.666-1.622
		C117.318,67.513,117.114,67.245,117.114,67.245z"/>
</g>
</svg>
