<?xml version="1.0" encoding="utf-8"?>
<!-- Generator: Adobe Illustrator 16.0.0, SVG Export Plug-In . SVG Version: 6.00 Build 0)  -->
<!DOCTYPE svg PUBLIC "-//W3C//DTD SVG 1.1//EN" "http://www.w3.org/Graphics/SVG/1.1/DTD/svg11.dtd">
<svg version="1.1" id="Layer_1" xmlns="http://www.w3.org/2000/svg" xmlns:xlink="http://www.w3.org/1999/xlink" x="0px" y="0px"
	 width="200px" height="200px" viewBox="0 0 200 200" enable-background="new 0 0 200 200" xml:space="preserve">
<path d="M143.963,132.235c0,6.627-5.373,12-12,12H65.631c-6.627,0-12-5.373-12-12V65.903c0-6.627,5.373-12,12-12h66.332
	c6.627,0,12,5.373,12,12V132.235z"/>
<circle fill="#FFFFFF" cx="75.384" cy="83.281" r="6.344"/>
<circle fill="#FFFFFF" cx="121.003" cy="83.281" r="6.345"/>
<g>
	<path fill="#FFFFFF" d="M121.701,114.756c0,0-0.044,0.057-0.129,0.167c-0.085,0.106-0.212,0.288-0.377,0.468
		c-0.329,0.36-0.812,0.98-1.429,1.586c-0.615,0.636-1.362,1.328-2.22,2.049c-0.857,0.718-1.824,1.436-2.879,2.135
		c-0.528,0.354-1.077,0.653-1.646,1.001c-0.568,0.332-1.156,0.599-1.761,0.914c-1.209,0.593-2.483,1.085-3.803,1.496
		c-2.638,0.831-5.451,1.228-8.265,1.232c-2.813-0.021-5.626-0.423-8.264-1.26c-2.638-0.818-5.1-2.044-7.209-3.415
		c-1.055-0.694-2.022-1.411-2.879-2.126c-0.857-0.717-1.604-1.407-2.22-2.039c-0.615-0.602-1.099-1.22-1.429-1.577
		c-0.165-0.179-0.291-0.359-0.376-0.465c-0.085-0.109-0.129-0.166-0.129-0.166v-1.301c0,0,0.703-0.039,1.934-0.108
		c1.231-0.056,2.989-0.198,5.1-0.256c2.11-0.054,4.572-0.174,7.209-0.198c2.638-0.027,5.451-0.057,8.264-0.086
		c2.813,0.028,5.627,0.058,8.265,0.085c2.638,0.021,5.1,0.145,7.21,0.198c2.109,0.056,3.868,0.201,5.099,0.256
		c1.231,0.07,1.935,0.109,1.935,0.109V114.756z"/>
</g>
</svg>
