<?xml version="1.0" encoding="utf-8"?>
<!-- Generator: Adobe Illustrator 16.0.0, SVG Export Plug-In . SVG Version: 6.00 Build 0)  -->
<!DOCTYPE svg PUBLIC "-//W3C//DTD SVG 1.1//EN" "http://www.w3.org/Graphics/SVG/1.1/DTD/svg11.dtd">
<svg version="1.1" id="Layer_1" xmlns="http://www.w3.org/2000/svg" xmlns:xlink="http://www.w3.org/1999/xlink" x="0px" y="0px"
	 width="200px" height="200px" viewBox="0 0 200 200" enable-background="new 0 0 200 200" xml:space="preserve">
<path d="M143.963,132.235c0,6.627-5.373,12-12,12H65.631c-6.627,0-12-5.373-12-12V65.903c0-6.627,5.373-12,12-12h66.332
	c6.627,0,12,5.373,12,12V132.235z"/>
<circle fill="#FFFFFF" cx="75.384" cy="83.281" r="6.344"/>
<circle fill="#FFFFFF" cx="121.003" cy="83.281" r="6.345"/>
<g>
	<path fill="#FFFFFF" d="M78.124,118.069c0,0,0.651-0.13,1.792-0.297s2.769-0.384,4.723-0.561c1.955-0.197,4.234-0.345,6.677-0.469
		c2.443-0.111,5.049-0.169,7.654-0.174c2.605,0.004,5.212,0.06,7.654,0.17c2.442,0.123,4.723,0.271,6.677,0.469
		c1.955,0.177,3.583,0.395,4.724,0.562c1.14,0.168,1.791,0.299,1.791,0.299s-0.651,0.131-1.791,0.299
		c-1.141,0.168-2.769,0.386-4.724,0.562c-1.954,0.198-4.234,0.346-6.677,0.469c-2.442,0.11-5.049,0.166-7.654,0.17
		c-2.605-0.005-5.211-0.062-7.654-0.174c-2.443-0.124-4.723-0.271-6.677-0.469c-1.954-0.177-3.583-0.394-4.723-0.561
		S78.124,118.069,78.124,118.069z"/>
</g>
</svg>
