<?xml version="1.0" encoding="utf-8"?>
<!-- Generator: Adobe Illustrator 16.0.0, SVG Export Plug-In . SVG Version: 6.00 Build 0)  -->
<!DOCTYPE svg PUBLIC "-//W3C//DTD SVG 1.1//EN" "http://www.w3.org/Graphics/SVG/1.1/DTD/svg11.dtd">
<svg version="1.1" id="Layer_1" xmlns="http://www.w3.org/2000/svg" xmlns:xlink="http://www.w3.org/1999/xlink" x="0px" y="0px"
	 width="200px" height="200px" viewBox="0 0 200 200" enable-background="new 0 0 200 200" xml:space="preserve">
<path d="M143.963,132.235c0,6.627-5.373,12-12,12H65.631c-6.627,0-12-5.373-12-12V65.903c0-6.627,5.373-12,12-12h66.332
	c6.627,0,12,5.373,12,12V132.235z"/>
<circle fill="#FFFFFF" cx="75.384" cy="83.281" r="6.344"/>
<circle fill="#FFFFFF" cx="121.003" cy="83.281" r="6.345"/>
<g>
	<path fill="#FFFFFF" d="M72.931,121.797c0,0-0.024,0.053-0.071,0.156c-0.02,0.085-0.079,0.041,0.011-0.024
		c0.053-0.064,0.114-0.139,0.183-0.223c0.276-0.34,0.663-0.861,1.208-1.479c1.077-1.244,2.704-2.974,4.939-4.751
		c1.114-0.892,2.371-1.809,3.786-2.654c1.41-0.852,2.953-1.685,4.64-2.356c1.682-0.678,3.477-1.287,5.365-1.656
		c1.884-0.378,3.841-0.588,5.803-0.598c1.961,0.021,3.918,0.246,5.8,0.642c1.889,0.379,3.678,1.013,5.353,1.707
		c1.68,0.694,3.213,1.544,4.613,2.411c1.403,0.864,2.651,1.79,3.756,2.691c2.22,1.792,3.845,3.514,4.934,4.745
		c0.552,0.609,0.948,1.123,1.226,1.464c0.273,0.345,0.42,0.528,0.42,0.528s-0.745-0.565-2.05-1.554
		c-1.306-0.975-3.188-2.335-5.526-3.778c-1.172-0.717-2.468-1.438-3.854-2.144c-1.395-0.691-2.901-1.327-4.476-1.902
		c-1.578-0.574-3.256-0.987-4.964-1.328c-1.712-0.328-3.478-0.492-5.241-0.483c-1.764-0.025-3.531,0.13-5.248,0.44
		c-1.713,0.324-3.396,0.724-4.981,1.28c-1.583,0.556-3.099,1.169-4.499,1.849c-1.394,0.689-2.698,1.395-3.874,2.103
		c-2.347,1.424-4.221,2.787-5.514,3.776c-0.646,0.501-1.155,0.894-1.501,1.162c-0.089,0.066-0.167,0.125-0.235,0.176
		c-0.045,0.022-0.045,0.051-0.134,0.062c-0.04-0.112,0.021-0.088,0.025-0.126C72.894,121.843,72.931,121.797,72.931,121.797z"/>
</g>
</svg>
