<?xml version="1.0" encoding="utf-8"?>
<!-- Generator: Adobe Illustrator 16.0.0, SVG Export Plug-In . SVG Version: 6.00 Build 0)  -->
<!DOCTYPE svg PUBLIC "-//W3C//DTD SVG 1.1//EN" "http://www.w3.org/Graphics/SVG/1.1/DTD/svg11.dtd">
<svg version="1.1" id="Layer_1" xmlns="http://www.w3.org/2000/svg" xmlns:xlink="http://www.w3.org/1999/xlink" x="0px" y="0px"
	 width="200px" height="200px" viewBox="0 0 200 200" enable-background="new 0 0 200 200" xml:space="preserve">
<path d="M143.963,132.235c0,6.627-5.373,12-12,12H65.631c-6.627,0-12-5.373-12-12V65.903c0-6.627,5.373-12,12-12h66.332
	c6.627,0,12,5.373,12,12V132.235z"/>
<circle fill="#FFFFFF" cx="75.384" cy="75.281" r="6.344"/>
<circle fill="#FFFFFF" cx="121.003" cy="75.281" r="6.345"/>
<ellipse fill="#FFFFFF" cx="98.613" cy="115.193" rx="16.465" ry="20.091"/>
<path fill="none" stroke="#FFFFFF" stroke-miterlimit="10" d="M61.354,67.11c0.045-4.007,3.324-7.214,7.331-7.168"/>
<path fill="none" stroke="#FFFFFF" stroke-miterlimit="10" d="M136.686,67.11c-0.045-4.007-3.324-7.214-7.331-7.168"/>
</svg>
