<?xml version="1.0" encoding="utf-8"?>
<!-- Generator: Adobe Illustrator 16.0.0, SVG Export Plug-In . SVG Version: 6.00 Build 0)  -->
<!DOCTYPE svg PUBLIC "-//W3C//DTD SVG 1.1//EN" "http://www.w3.org/Graphics/SVG/1.1/DTD/svg11.dtd">
<svg version="1.1" id="Layer_1" xmlns="http://www.w3.org/2000/svg" xmlns:xlink="http://www.w3.org/1999/xlink" x="0px" y="0px"
	 width="200px" height="200px" viewBox="0 0 200 200" enable-background="new 0 0 200 200" xml:space="preserve">
<path d="M143.963,132.235c0,6.627-5.373,12-12,12H65.631c-6.627,0-12-5.373-12-12V65.903c0-6.627,5.373-12,12-12h66.332
	c6.627,0,12,5.373,12,12V132.235z"/>
<circle fill="#FFFFFF" cx="75.384" cy="89.281" r="6.344"/>
<circle fill="#FFFFFF" cx="121.003" cy="89.281" r="6.345"/>
<g>
	<path fill="#FFFFFF" d="M74.199,129.599c0.011-0.018-0.061,0.094-0.054,0.077l0.024-0.051l0.055-0.14
		c0.027-0.078,0.047-0.161,0.059-0.244l0.007-0.063c0,0.002,0.03-0.31-0.036-0.519c-0.057-0.242-0.205-0.512-0.397-0.695
		c-0.19-0.188-0.4-0.292-0.558-0.346c-0.321-0.144-0.885-0.086-1.143,0.07l-0.109,0.061l-0.11,0.076
		c-0.033,0.027-0.029,0.025-0.026,0.023c0.046-0.041,0.1-0.089,0.16-0.144c0.325-0.301,0.802-0.743,1.409-1.306
		c1.248-1.12,3.089-2.668,5.487-4.258c2.395-1.586,5.359-3.218,8.763-4.403c3.392-1.194,7.233-1.896,11.062-1.777
		c3.83,0.097,7.587,1.015,10.849,2.389c3.271,1.372,6.069,3.142,8.313,4.825c2.249,1.683,3.966,3.271,5.138,4.405
		c1.169,1.139,1.804,1.82,1.804,1.82s-0.669-0.649-1.892-1.726c-1.224-1.071-3.013-2.566-5.321-4.118
		c-2.302-1.554-5.145-3.151-8.387-4.322c-3.234-1.175-6.879-1.865-10.509-1.773c-3.631,0.071-7.202,0.914-10.333,2.197
		c-3.142,1.274-5.855,2.95-8.036,4.56c-2.185,1.611-3.844,3.156-4.966,4.27c-0.56,0.575-1,1.026-1.301,1.334
		c-0.097,0.097-0.184,0.182-0.258,0.255l-0.118,0.102l-0.04,0.031l-0.116,0.078l-0.132,0.075c-0.266,0.159-0.839,0.218-1.169,0.076
		c-0.158-0.055-0.369-0.161-0.56-0.352c-0.192-0.186-0.342-0.457-0.399-0.701c-0.066-0.211-0.037-0.526-0.037-0.525l0.009-0.068
		c0.014-0.092,0.037-0.183,0.066-0.269l0.05-0.13l0.025-0.055c0.023-0.045,0.046-0.089,0.067-0.13
		c0.083-0.141,0.125-0.214,0.125-0.214L74.199,129.599z"/>
</g>
<g>
	<path fill="#FFFFFF" d="M69.114,69.245c0,0,0.334,0.043,0.889,0.171c0.556,0.125,1.332,0.336,2.235,0.638
		c1.806,0.604,4.084,1.633,6.237,2.878c2.154,1.245,4.182,2.705,5.604,3.973c0.71,0.634,1.28,1.202,1.665,1.624
		c0.387,0.417,0.59,0.687,0.59,0.687s-0.334-0.042-0.89-0.17c-0.557-0.125-1.333-0.335-2.237-0.635
		c-1.807-0.602-4.083-1.634-6.235-2.882c-2.152-1.248-4.179-2.71-5.602-3.976c-0.711-0.634-1.281-1.201-1.666-1.622
		C69.318,69.513,69.114,69.245,69.114,69.245z"/>
</g>
<g>
	<path fill="#FFFFFF" d="M125.335,69.245c0,0-0.204,0.268-0.591,0.685c-0.386,0.42-0.955,0.988-1.666,1.622
		c-1.423,1.266-3.45,2.729-5.602,3.976s-4.428,2.28-6.235,2.882c-0.903,0.3-1.68,0.511-2.236,0.635
		c-0.555,0.127-0.89,0.17-0.89,0.17s0.203-0.269,0.591-0.687c0.385-0.421,0.953-0.99,1.664-1.624
		c1.422-1.268,3.45-2.728,5.604-3.973s4.431-2.274,6.237-2.878c0.903-0.301,1.679-0.513,2.235-0.638
		C125.001,69.289,125.335,69.245,125.335,69.245z"/>
</g>
</svg>
