<?xml version="1.0" encoding="utf-8"?>
<!-- Generator: Adobe Illustrator 16.0.0, SVG Export Plug-In . SVG Version: 6.00 Build 0)  -->
<!DOCTYPE svg PUBLIC "-//W3C//DTD SVG 1.1//EN" "http://www.w3.org/Graphics/SVG/1.1/DTD/svg11.dtd">
<svg version="1.1" id="Layer_1" xmlns="http://www.w3.org/2000/svg" xmlns:xlink="http://www.w3.org/1999/xlink" x="0px" y="0px"
	 width="24px" height="24px" viewBox="0 0 24 24" enable-background="new 0 0 24 24" xml:space="preserve">
<path fill="#FFFFFF" stroke="#000000" stroke-miterlimit="10" d="M24,20.518c0,1.734-1.408,3.143-3.144,3.143H3.482
	c-1.736,0-3.143-1.408-3.143-3.143V3.143C0.339,1.407,1.747,0,3.482,0h17.374C22.592,0,24,1.407,24,3.143V20.518z"/>
<circle cx="6.037" cy="9.266" r="1.661"/>
<circle cx="17.986" cy="9.266" r="1.662"/>
<line fill="#FFFFFF" stroke="#000000" stroke-miterlimit="10" x1="4.657" y1="4.018" x2="9.167" y2="6.63"/>
<line fill="#FFFFFF" stroke="#000000" stroke-miterlimit="10" x1="19.383" y1="4.018" x2="14.872" y2="6.63"/>
<path fill="#FFFFFF" stroke="#000000" stroke-miterlimit="10" d="M7.396,16.319c0,0,2.453,4.985,9.021,0.949"/>
<path fill="#FFFFFF" stroke="#000000" stroke-miterlimit="10" d="M16.131,15.961c-0.26,0.978,0.321,1.98,1.3,2.24"/>
</svg>
