<?xml version="1.0" encoding="utf-8"?>
<!-- Generator: Adobe Illustrator 16.0.0, SVG Export Plug-In . SVG Version: 6.00 Build 0)  -->
<!DOCTYPE svg PUBLIC "-//W3C//DTD SVG 1.1//EN" "http://www.w3.org/Graphics/SVG/1.1/DTD/svg11.dtd">
<svg version="1.1" id="Layer_1" xmlns="http://www.w3.org/2000/svg" xmlns:xlink="http://www.w3.org/1999/xlink" x="0px" y="0px"
	 width="24px" height="24px" viewBox="0 0 24 24" enable-background="new 0 0 24 24" xml:space="preserve">
<path fill="#FFFFFF" stroke="#000000" stroke-miterlimit="10" d="M23.804,20.685c0,1.742-1.412,3.154-3.154,3.154H3.216
	c-1.741,0-3.154-1.412-3.154-3.154V3.25c0-1.742,1.413-3.154,3.154-3.154h17.434c1.742,0,3.154,1.412,3.154,3.154V20.685z"/>
<line fill="#FFFFFF" stroke="#000000" stroke-miterlimit="10" x1="6.816" y1="3.866" x2="2.292" y2="6.486"/>
<line fill="#FFFFFF" stroke="#000000" stroke-miterlimit="10" x1="16.484" y1="3.866" x2="21.01" y2="6.486"/>
<polyline fill="#FFFFFF" stroke="#000000" stroke-miterlimit="10" points="3.885,7.542 7.935,9.289 3.964,11.514 "/>
<polyline fill="#FFFFFF" stroke="#000000" stroke-miterlimit="10" points="19.235,7.542 15.187,9.289 19.156,11.514 "/>
<path d="M8.737,19.933c0,0,1.111-2.145-0.478-4.765c-1.587-2.621,7.366,1.191,7.366,1.191l0.893,3.971L8.737,19.933z"/>
</svg>
