<?xml version="1.0" encoding="utf-8"?>
<!-- Generator: Adobe Illustrator 16.0.0, SVG Export Plug-In . SVG Version: 6.00 Build 0)  -->
<!DOCTYPE svg PUBLIC "-//W3C//DTD SVG 1.1//EN" "http://www.w3.org/Graphics/SVG/1.1/DTD/svg11.dtd">
<svg version="1.1" id="Layer_1" xmlns="http://www.w3.org/2000/svg" xmlns:xlink="http://www.w3.org/1999/xlink" x="0px" y="0px"
	 width="200px" height="200px" viewBox="0 0 200 200" enable-background="new 0 0 200 200" xml:space="preserve">
<path d="M143.963,132.235c0,6.627-5.373,12-12,12H65.631c-6.627,0-12-5.373-12-12V65.903c0-6.627,5.373-12,12-12h66.332
	c6.627,0,12,5.373,12,12V132.235z"/>
<g>
	<path fill="#FFFFFF" d="M79.334,68.245c0,0-0.204,0.268-0.591,0.685c-0.386,0.42-0.955,0.988-1.666,1.622
		c-1.423,1.266-3.45,2.729-5.602,3.976c-2.152,1.248-4.428,2.28-6.235,2.882c-0.903,0.3-1.68,0.511-2.236,0.635
		c-0.555,0.127-0.89,0.17-0.89,0.17s0.204-0.269,0.59-0.687c0.385-0.421,0.954-0.99,1.665-1.624c1.422-1.268,3.45-2.728,5.604-3.973
		s4.431-2.274,6.237-2.878c0.903-0.301,1.679-0.513,2.235-0.638C79,68.289,79.334,68.245,79.334,68.245z"/>
</g>
<g>
	<path fill="#FFFFFF" d="M116.114,68.245c0,0,0.334,0.043,0.889,0.171c0.556,0.125,1.332,0.336,2.235,0.638
		c1.807,0.604,4.084,1.633,6.237,2.878s4.182,2.705,5.604,3.973c0.71,0.634,1.28,1.202,1.665,1.624
		c0.387,0.417,0.59,0.687,0.59,0.687s-0.334-0.042-0.89-0.17c-0.557-0.125-1.333-0.335-2.236-0.635
		c-1.808-0.602-4.083-1.634-6.235-2.882c-2.151-1.248-4.179-2.71-5.602-3.976c-0.711-0.634-1.28-1.201-1.666-1.622
		C116.318,68.513,116.114,68.245,116.114,68.245z"/>
</g>
<g>
	<path fill="#FFFFFF" d="M68.175,82.233c1.413,0.255,2.774,0.628,4.138,0.998c1.351,0.398,2.7,0.802,4.027,1.255
		c2.655,0.906,5.264,1.917,7.835,3.019l2.779,1.19l-2.64,1.492c-2.512,1.419-5.077,2.745-7.703,3.96
		c-1.309,0.616-2.651,1.17-3.993,1.728c-1.362,0.521-2.716,1.056-4.141,1.464c1.093-1.001,2.256-1.877,3.412-2.766
		c1.176-0.853,2.351-1.707,3.56-2.501c2.409-1.604,4.879-3.098,7.402-4.498l0.138,2.681c-2.565-1.115-5.091-2.319-7.572-3.628
		c-1.241-0.654-2.46-1.358-3.677-2.068C70.537,83.82,69.331,83.085,68.175,82.233z"/>
</g>
<g>
	<path fill="#FFFFFF" d="M126.582,82.233c-1.155,0.853-2.361,1.587-3.565,2.325c-1.217,0.709-2.436,1.414-3.677,2.068
		c-2.48,1.309-5.007,2.513-7.572,3.628l0.139-2.681c2.523,1.4,4.993,2.895,7.402,4.498c1.209,0.794,2.384,1.649,3.56,2.501
		c1.156,0.888,2.319,1.764,3.412,2.766c-1.425-0.408-2.779-0.942-4.141-1.464c-1.342-0.558-2.685-1.112-3.993-1.728
		c-2.626-1.216-5.19-2.542-7.703-3.96l-2.641-1.492l2.779-1.19c2.57-1.101,5.18-2.112,7.835-3.019
		c1.327-0.453,2.676-0.857,4.027-1.255C123.808,82.861,125.169,82.488,126.582,82.233z"/>
</g>
<path fill="#FFFFFF" d="M86.637,129.372c0,0,4.23-8.157-1.812-18.127s28.024,4.531,28.024,4.531l3.396,15.105L86.637,129.372z"/>
</svg>
