<?xml version="1.0" encoding="utf-8"?>
<!-- Generator: Adobe Illustrator 16.0.0, SVG Export Plug-In . SVG Version: 6.00 Build 0)  -->
<!DOCTYPE svg PUBLIC "-//W3C//DTD SVG 1.1//EN" "http://www.w3.org/Graphics/SVG/1.1/DTD/svg11.dtd">
<svg version="1.1" id="Layer_1" xmlns="http://www.w3.org/2000/svg" xmlns:xlink="http://www.w3.org/1999/xlink" x="0px" y="0px"
	 width="24px" height="24px" viewBox="0 0 24 24" enable-background="new 0 0 24 24" xml:space="preserve">
<path fill="#FFFFFF" stroke="#000000" stroke-miterlimit="10" d="M23.928,20.748c0,1.756-1.423,3.179-3.179,3.179H3.179
	C1.423,23.927,0,22.504,0,20.748V3.178C0,1.423,1.423,0,3.179,0h17.57c1.756,0,3.179,1.423,3.179,3.179V20.748z"/>
<circle cx="5.762" cy="8.841" r="1.68"/>
<circle cx="17.846" cy="8.841" r="1.68"/>
<path fill="#FFFFFF" stroke="#000000" stroke-miterlimit="10" d="M3.643,18.616c0,0,4.096-5.302,8.177-1.22s6.461,1.721,8.182,0"/>
<line fill="#FFFFFF" stroke="#000000" stroke-miterlimit="10" x1="7.073" y1="3.534" x2="2.512" y2="6.175"/>
<line fill="#FFFFFF" stroke="#000000" stroke-miterlimit="10" x1="16.816" y1="3.534" x2="21.377" y2="6.175"/>
</svg>
