<?xml version="1.0" encoding="utf-8"?>
<!-- Generator: Adobe Illustrator 16.0.0, SVG Export Plug-In . SVG Version: 6.00 Build 0)  -->
<!DOCTYPE svg PUBLIC "-//W3C//DTD SVG 1.1 Tiny//EN" "http://www.w3.org/Graphics/SVG/1.1/DTD/svg11-tiny.dtd">
<svg version="1.1" baseProfile="tiny" id="Layer_1" xmlns="http://www.w3.org/2000/svg" xmlns:xlink="http://www.w3.org/1999/xlink"
	 x="0px" y="0px" width="24px" height="24px" viewBox="0 0 24 24" xml:space="preserve">
<circle fill="#F4EC53" stroke="#000000" stroke-miterlimit="10" cx="12.315" cy="11.685" r="10.685"/>
<circle cx="6.134" cy="8.451" r="1.684"/>
<circle cx="18.24" cy="8.451" r="1.684"/>
<g>
	<line fill="#FFFFFF" x1="18.497" y1="14.601" x2="6.607" y2="14.601"/>
	<path d="M18.497,14.851c0,0-0.047,0.08-0.134,0.23c-0.087,0.139-0.215,0.401-0.377,0.615c-0.163,0.23-0.36,0.534-0.587,0.78
		c-0.226,0.273-0.481,0.578-0.76,0.837c-0.558,0.532-1.208,0.997-1.904,1.307c-0.349,0.156-0.709,0.281-1.074,0.362
		c-0.366,0.078-0.737,0.115-1.109,0.117c-0.372-0.003-0.743-0.045-1.109-0.124c-0.366-0.088-0.726-0.204-1.074-0.367
		c-0.696-0.312-1.347-0.775-1.904-1.307c-0.279-0.257-0.534-0.563-0.761-0.833c-0.227-0.245-0.424-0.549-0.586-0.777
		c-0.163-0.212-0.29-0.475-0.377-0.611c-0.087-0.149-0.133-0.229-0.133-0.229v-0.5c0,0,0.743-0.072,1.858-0.141
		c0.557-0.021,1.208-0.066,1.904-0.076c0.697-0.011,1.44-0.021,2.183-0.033c0.743,0.012,1.486,0.022,2.183,0.033
		c0.696,0.008,1.347,0.056,1.904,0.076c1.114,0.067,1.857,0.141,1.857,0.141V14.851z"/>
</g>
</svg>
