<?xml version="1.0" encoding="utf-8"?>
<!-- Generator: Adobe Illustrator 16.0.0, SVG Export Plug-In . SVG Version: 6.00 Build 0)  -->
<!DOCTYPE svg PUBLIC "-//W3C//DTD SVG 1.1//EN" "http://www.w3.org/Graphics/SVG/1.1/DTD/svg11.dtd">
<svg version="1.1" id="Layer_1" xmlns="http://www.w3.org/2000/svg" xmlns:xlink="http://www.w3.org/1999/xlink" x="0px" y="0px"
	 width="24px" height="24px" viewBox="0 0 24 24" enable-background="new 0 0 24 24" xml:space="preserve">
<path fill="#FFFFFF" stroke="#000000" stroke-miterlimit="10" d="M24.023,20.688c0,1.751-1.419,3.17-3.17,3.17H3.334
	c-1.75,0-3.169-1.419-3.169-3.17V3.169C0.165,1.419,1.584,0,3.334,0h17.519c1.751,0,3.17,1.419,3.17,3.169V20.688z"/>
<circle cx="5.91" cy="7.759" r="1.676"/>
<circle fill="#020202" cx="17.959" cy="7.759" r="1.676"/>
<g>
	<line fill="#FFFFFF" x1="18.144" y1="15.9" x2="6.254" y2="15.9"/>
	<path d="M18.144,16.15c0,0-0.047,0.08-0.134,0.23c-0.087,0.139-0.215,0.401-0.377,0.615c-0.163,0.23-0.36,0.534-0.587,0.78
		c-0.226,0.273-0.481,0.578-0.76,0.837c-0.558,0.532-1.208,0.997-1.904,1.307c-0.349,0.156-0.709,0.281-1.074,0.362
		c-0.366,0.078-0.737,0.115-1.109,0.117c-0.372-0.003-0.743-0.045-1.109-0.124c-0.366-0.088-0.726-0.204-1.074-0.367
		c-0.696-0.312-1.347-0.775-1.904-1.307c-0.279-0.257-0.534-0.563-0.761-0.833c-0.227-0.245-0.424-0.549-0.586-0.777
		c-0.163-0.212-0.29-0.475-0.377-0.611C6.3,16.23,6.254,16.15,6.254,16.15v-0.5c0,0,0.743-0.072,1.858-0.141
		c0.557-0.021,1.208-0.066,1.904-0.076c0.697-0.011,1.44-0.021,2.183-0.033c0.743,0.012,1.486,0.022,2.183,0.033
		c0.696,0.008,1.347,0.056,1.904,0.076c1.114,0.067,1.857,0.141,1.857,0.141V16.15z"/>
</g>
</svg>
