<?xml version="1.0" encoding="utf-8"?>
<!-- Generator: Adobe Illustrator 16.0.0, SVG Export Plug-In . SVG Version: 6.00 Build 0)  -->
<!DOCTYPE svg PUBLIC "-//W3C//DTD SVG 1.1 Tiny//EN" "http://www.w3.org/Graphics/SVG/1.1/DTD/svg11-tiny.dtd">
<svg version="1.1" baseProfile="tiny" id="Layer_1" xmlns="http://www.w3.org/2000/svg" xmlns:xlink="http://www.w3.org/1999/xlink"
	 x="0px" y="0px" width="24px" height="24px" viewBox="0 0 24 24" xml:space="preserve">
<circle fill="#FFFFFF" stroke="#000000" stroke-miterlimit="10" cx="12.315" cy="11.685" r="10.685"/>
<circle cx="6.134" cy="8.451" r="1.684"/>
<circle cx="18.24" cy="8.451" r="1.684"/>
<g>
	<line fill="none" x1="18.497" y1="14.602" x2="6.607" y2="14.602"/>
	<path d="M18.497,14.852c0,0-0.047,0.08-0.134,0.229c-0.088,0.14-0.215,0.401-0.377,0.614c-0.163,0.23-0.36,0.535-0.588,0.781
		c-0.226,0.272-0.48,0.578-0.76,0.836c-0.558,0.533-1.207,0.998-1.904,1.308c-0.349,0.155-0.709,0.28-1.073,0.362
		c-0.366,0.078-0.737,0.115-1.109,0.117c-0.372-0.004-0.743-0.045-1.109-0.125c-0.366-0.088-0.726-0.203-1.074-0.367
		c-0.696-0.312-1.347-0.774-1.904-1.307c-0.279-0.257-0.534-0.562-0.761-0.833c-0.227-0.245-0.424-0.549-0.586-0.776
		c-0.163-0.213-0.29-0.476-0.377-0.611c-0.087-0.148-0.133-0.229-0.133-0.229v-0.5c0,0,0.743-0.072,1.858-0.142
		c0.557-0.021,1.208-0.065,1.904-0.076c0.697-0.011,1.44-0.021,2.183-0.032c0.743,0.012,1.486,0.021,2.184,0.032
		c0.695,0.009,1.347,0.056,1.904,0.076c1.113,0.067,1.856,0.142,1.856,0.142V14.852z"/>
</g>
</svg>
